<svg width="18" height="18" viewBox="0 0 18 18" fill="none" xmlns="http://www.w3.org/2000/svg">
<path d="M6 5.25003V5.25753M12 11.25V11.2575M8.121 7.37103C8.54065 6.95151 8.82646 6.41696 8.94229 5.83499C9.05812 5.25303 8.99876 4.64978 8.77173 4.10155C8.54469 3.55332 8.16017 3.08473 7.66681 2.75504C7.17344 2.42536 6.59338 2.24939 6 2.24939C5.40662 2.24939 4.82656 2.42536 4.3332 2.75504C3.83983 3.08473 3.45531 3.55332 3.22828 4.10155C3.00124 4.64978 2.94188 5.25303 3.05771 5.83499C3.17354 6.41696 3.45935 6.95151 3.879 7.37103L6 9.49278L8.121 7.37103ZM14.121 13.371C14.5406 12.9515 14.8265 12.417 14.9423 11.835C15.0581 11.253 14.9988 10.6498 14.7717 10.1015C14.5447 9.55332 14.1602 9.08473 13.6668 8.75504C13.1734 8.42536 12.5934 8.24939 12 8.24939C11.4066 8.24939 10.8266 8.42536 10.3332 8.75504C9.83983 9.08473 9.45531 9.55332 9.22828 10.1015C9.00124 10.6498 8.94188 11.253 9.05771 11.835C9.17354 12.417 9.45935 12.9515 9.879 13.371L12 15.4928L14.121 13.371Z" stroke="#232323" stroke-linecap="round" stroke-linejoin="round"/>
</svg>
